# xmcd CD database file
#
# Track frame offsets:
#	150
#	11457
#	23164
#	35475
#	49509
#	60930
#	74809
#	90392
#	102874
#	116978
#	130577
#	141313
#	153042
#	162615
#	173282
#	183422
#
# Disc length: 2592 seconds
#
# Revision: 2
# Processed by: cddbd v1.5.2PL0 Copyright (c) Steve Scherf et al.
# Submitted via: CDex 1.70beta2
#
DISCID=c90a1e10
DTITLE=Various Artist - Country Ballads
DYEAR=2003
DGENRE=Country
TTITLE0=Kenny Rogers - Me And Bobby McGhee
TTITLE1=Waylon Jennings - Crying
TTITLE2=Lynn Anderson - Stand By Your Man
TTITLE3=Billie Jo Spears - Blue Bayou
TTITLE4=Freddy Fender - Before The Next Teardrops Falls
TTITLE5=Willie Nelson - Will You Remember Mine
TTITLE6=Skeeter Davis - Desperado
TTITLE7=Gene Autry - Have I Told You Lately That I Love You
TTITLE8=George Jones  - A Good Year For The Roses
TTITLE9=Flying Burrito Brothers - Another Shade Of The Gray
TTITLE10=Sammi Smith - Help Me Make It Through The Night
TTITLE11=Dolly Parton - Letter To Heaven
TTITLE12=Ned Miller - From A Jack To A King
TTITLE13=Patsy Cline - I Chried All The Way To The Altar
TTITLE14=Frankie Laine - I Believe
TTITLE15=Merle Kilgore - Lave Has Made You Beautyful
EXTD=YEAR: 2003
EXTT0=
EXTT1=
EXTT2=
EXTT3=
EXTT4=
EXTT5=
EXTT6=
EXTT7=
EXTT8=
EXTT9=
EXTT10=
EXTT11=
EXTT12=
EXTT13=
EXTT14=
EXTT15=
PLAYORDER=
